<?xml version="1.0" encoding="utf-8"?>
<!-- Generator: Adobe Illustrator 26.1.0, SVG Export Plug-In . SVG Version: 6.00 Build 0)  -->
<svg version="1.1" xmlns="http://www.w3.org/2000/svg" xmlns:xlink="http://www.w3.org/1999/xlink" x="0px" y="0px"
	 viewBox="0 0 192 192" style="enable-background:new 0 0 192 192;" xml:space="preserve">
<style type="text/css">
	.st0{fill:#FED800;}
	.st1{fill:#E5F4F3;stroke:#272242;stroke-width:7;stroke-miterlimit:10;}
</style>
<g id="Layer_1">
	<rect class="st0" width="192" height="192"/>
</g>
<g id="Layer_2">
	<path class="st1" d="M16.61,95.94c-0.99,1.53-3.64,5.3-2.62,9.27c1.92,7.5,16.36,13.65,26.81,8.87
		c7.98-3.65,10.68-12.33,11.09-13.71c1.98-6.74-0.1-9.79-1.01-22.78c-0.68-9.7-0.47-22.66,1.91-23.08
		c2.75-0.49,5.89,16.17,10.78,16.02c5.21-0.16,7.26-19.22,10.28-18.95c2.6,0.24,3.83,14.58,3.63,25.2
		c-0.21,10.57-1.21,18.54-1.21,18.54c-1.27,10.11-2.58,12.43-0.81,15.52c3.19,5.56,12.56,7.08,19.45,5.34
		c6.72-1.7,10.79-6.43,11.99-7.95c7.74-9.78,4.04-21.69-0.6-51.96c-4.87-31.78-4.84-45.05-11.09-46.42
		C89.46,8.61,80.75,18,79.5,19.35c-1.97,2.13-3.73,4.57-9.27,10.68c-3.59,3.96-5.19,5.5-7.46,5.64c-2.21,0.14-4.04-1.12-8.06-5.04
		c-8.64-8.42-9.52-11.68-14.51-14.92c-3.38-2.2-7.79-5.05-11.29-3.83C15.97,16.41,33.28,70.32,16.61,95.94z"/>
	<path class="st1" d="M83.46,157.65c-0.99,1.53-3.64,5.3-2.62,9.27c1.92,7.5,16.36,13.65,26.81,8.87
		c7.98-3.65,10.68-12.33,11.09-13.71c1.98-6.74-0.1-9.79-1.01-22.78c-0.68-9.7-0.47-22.66,1.91-23.08
		c2.75-0.49,5.89,16.17,10.78,16.02c5.21-0.16,7.26-19.22,10.28-18.95c2.6,0.24,3.83,14.58,3.63,25.2
		c-0.21,10.57-1.21,18.54-1.21,18.54c-1.27,10.11-2.58,12.43-0.81,15.52c3.19,5.56,12.56,7.08,19.45,5.34
		c6.72-1.7,10.79-6.43,11.99-7.95c7.74-9.78,4.04-21.69-0.6-51.96c-4.87-31.78-4.84-45.05-11.09-46.42
		c-5.76-1.26-14.47,8.12-15.72,9.47c-1.97,2.13-3.73,4.57-9.27,10.68c-3.59,3.96-5.19,5.5-7.46,5.64c-2.21,0.14-4.04-1.12-8.06-5.04
		c-8.64-8.42-9.52-11.68-14.51-14.92c-3.38-2.2-7.79-5.05-11.29-3.83C82.82,78.11,100.13,132.02,83.46,157.65z"/>
</g>
</svg>
